<svg width="960" height="1180" viewBox="0 0 960 1180" fill="none" xmlns="http://www.w3.org/2000/svg">
  <defs>
    <linearGradient id="bride-bg" x1="60" y1="60" x2="860" y2="1120" gradientUnits="userSpaceOnUse">
      <stop stop-color="#FFF8F4"/>
      <stop offset="1" stop-color="#F3E0D9"/>
    </linearGradient>
  </defs>
  <rect width="960" height="1180" rx="44" fill="url(#bride-bg)"/>
  <rect x="34" y="34" width="892" height="1112" rx="32" stroke="#BC9451" stroke-opacity="0.35" stroke-width="2"/>
  <path d="M239 252C271 171.333 349 131 473 131C592.333 131 674 171.333 718 252" stroke="#C78A8A" stroke-width="18" stroke-linecap="round"/>
  <path d="M282 615C282 482.451 389.451 375 522 375C654.549 375 762 482.451 762 615V850H282V615Z" fill="#C78A8A" fill-opacity="0.18"/>
  <circle cx="522" cy="312" r="128" fill="#C78A8A" fill-opacity="0.19"/>
  <path d="M218 872C282 807.333 383.667 775 523 775C662.333 775 760.667 807.333 818 872" stroke="#7F1F31" stroke-opacity="0.16" stroke-width="18" stroke-linecap="round"/>
  <text x="480" y="1000" text-anchor="middle" fill="#7F1F31" font-family="Georgia, serif" font-size="64">Bride Portrait</text>
  <text x="480" y="1064" text-anchor="middle" fill="#5A4851" font-family="Arial, sans-serif" font-size="30" letter-spacing="7">REPLACE WITH PHOTO</text>
</svg>
